<svg xmlns="http://www.w3.org/2000/svg" viewBox="0 0 90 85"><defs><style>.cls-1{fill:#f16378;}</style></defs><title>Asset 1</title><g id="Layer_2" data-name="Layer 2"><g id="Layer_1-2" data-name="Layer 1"><path class="cls-1" d="M31.21,63.57a1.51,1.51,0,0,1-1.49-1.31c-.06-.44-6-44.52-8-53.75C20.7,3.87,6.72,2.82.1,3L0,0C2.33,0,22.82-.49,24.67,7.86c.55,2.47,1.35,7.27,2.23,13H88.49A1.51,1.51,0,0,1,90,22.4V48.76a1.51,1.51,0,0,1-1.17,1.47L31.55,63.53A1.56,1.56,0,0,1,31.21,63.57ZM27.36,23.91c2.05,13.6,4.4,30.89,5.13,36.31L87,47.56V23.91Z"/><path class="cls-1" d="M88.49,78.76h-55c-4.23,0-6.8-.69-8.34-2.23-1.88-1.89-1.88-4.55-1.87-7.92V68c0-5.65,7.28-7.36,7.59-7.43l.66,2.94-.33-1.47.33,1.47c-.05,0-5.24,1.25-5.24,4.49v.59c0,2.78,0,4.78,1,5.78s2.94,1.35,6.21,1.35h55Z"/><path class="cls-1" d="M38,77.22v0a6.25,6.25,0,1,0,12.5,0H38.73Z"/><path class="cls-1" d="M70.18,77.22v0a6.25,6.25,0,1,0,12.5,0H70.89Z"/><path class="cls-1" d="M44.27,85a7.77,7.77,0,0,1-7.76-7.76s0,0,0-.06a1.51,1.51,0,0,1,1.57-1.46H50.52A1.51,1.51,0,0,1,52,77.23,7.77,7.77,0,0,1,44.27,85Zm-4.5-6.26a4.75,4.75,0,0,0,9,0Z"/><path class="cls-1" d="M76.43,85a7.77,7.77,0,0,1-7.76-7.76s0,0,0-.06a1.51,1.51,0,0,1,1.57-1.46H82.68a1.51,1.51,0,0,1,1.51,1.51A7.77,7.77,0,0,1,76.43,85Zm-4.5-6.26a4.75,4.75,0,0,0,9,0Z"/><rect class="cls-1" x="37.79" y="22.2" width="3.01" height="37.55" transform="translate(-5.55 6.17) rotate(-8.38)"/><rect class="cls-1" x="47.76" y="22.28" width="3.02" height="35.23" transform="translate(-4.31 6.01) rotate(-6.69)"/><rect class="cls-1" x="57.74" y="22.34" width="3.01" height="32.95" transform="translate(-3.02 5.06) rotate(-4.77)"/><rect class="cls-1" x="67.72" y="22.38" width="3.01" height="30.71" transform="matrix(1, -0.04, 0.04, 1, -1.61, 3.12)"/><rect class="cls-1" x="77.69" y="22.4" width="3.01" height="28.52"/></g></g></svg>